<svg id="Layer_1" data-name="Layer 1" xmlns="http://www.w3.org/2000/svg" viewBox="0 0 6503 1743.61"><defs><style>.cls-1{fill:navy;}.cls-2{fill:none;stroke:navy;stroke-miterlimit:10;stroke-width:25.05px;}</style></defs><path class="cls-1" d="M5947.23,267.21q-257.77,0-515.55,0c-36.46,0-38.12-1.49-38.29-37.26q-.45-88.67-.24-177.33c.1-37.85,1.29-38.95,39.56-39q442.74-.46,885.47-.91c50.45-.1,100.9-1.7,151.33-3.29,23.25-.74,33.19,8.39,32.84,32.47-.91,63-1.25,126,.42,188.94.75,28.13-9.45,36.66-37.08,36.5-172.81-.95-345.64-.48-518.46-.48Z"/><path class="cls-1" d="M3667.73,382.45c0-108.54.81-217.09-.53-325.61-.37-29.37,9.47-39,38.71-38.16,61.12,1.75,122.33.25,183.5.32,35.82.05,37,1.38,37.07,38.2.15,113.38.5,226.77.22,340.15-.26,104.57,4.11,209,.68,313.74-8.6,262.53-208.55,486.12-470,514.55-118.67,12.9-238.36,14.5-357-5.15-228.68-37.89-416.34-242.86-429.3-472.85-13.15-233.27-3.46-466.93-6.58-700.39-.27-20.14,8.23-27.68,27.73-27.6,68,.28,135.94.39,203.9-.55,23.52-.32,27,12.71,27,31.47-.17,63,.19,126,.28,189,.22,149.24-.43,298.49.92,447.72.84,93.77,31.3,175,110.34,232.29,40.11,29.05,85.61,48.13,134.54,51.33,90,5.88,180.74,11.3,270.17-3.55,136.78-22.72,224.18-126.49,228.37-265.09.12-3.87.22-7.75.22-11.63q0-154.08,0-308.16Z"/><path class="cls-1" d="M2227.46,20.1c86.6,0,179.84.77,273.05-.47,27.76-.37,38.09,9.08,37.54,36.92q-1.85,93,.42,186.07c.7,27.25-10,34.92-36,34.86-188.4-.46-376.8-.66-565.19.79-102.3.79-190.46,34.73-252.55,120.57-25.9,35.81-42.86,76.13-51.79,119.23-14.72,71-15.86,142.82-.4,213.61,33.36,152.74,144.43,240.65,305.81,240.84,187.38.22,374.76-2.27,562.15-3.45,50-.32,50-.1,50.28,49.53.38,59.12.25,118.25,1.57,177.35.5,22.23-7.33,30.68-30.19,31.29q-297,7.92-594.07,2.21c-302.86-5.63-524.64-211.05-557.84-511.72-16.52-149.65-3.13-295.22,78.55-426.37C1551.21,127,1700.35,37.41,1894.67,24.68,2003.31,17.57,2112.12,22.56,2227.46,20.1Z"/><path class="cls-1" d="M5947.42,1235.47q-253.52,0-507,0c-42.31,0-42.46-.19-42.5-42.63q-.35-329.16-.7-658.32c-.11-48.62-1.37-97.25-3.42-145.82-1.11-26.3,7.66-37.76,34.93-37.16q96.12,2.13,192.3.18c26.95-.54,36.84,10.4,35.45,36.9-1.13,21.78,1.35,43.79-.3,65.49-2,26.35,8.12,34.16,33.48,33.95,136-1.1,272-.16,408-.79,121.37-.56,242.74-2.39,364.12-3.33,37-.29,39.48,2.51,39.64,40.64.28,62.55-.43,125.12.68,187.66.43,24-5.45,35.4-31.86,37.28-34.21,2.43-67.9-1.65-101.83-1.62-172.89.17-345.79-.11-518.69.28-56.22.13-112.44,2.73-168.65,2.3-19.94-.16-24.95,7.36-24.62,26,.91,52.61,1.9,105.3.06,157.86-1,28.76,8.46,37.39,36.43,37.28,251.57-1,503.14-.62,754.72-.71,54.6,0,54.56-.1,54.61,54.29.05,57.59-.91,115.22.76,172.76.83,28.47-8.93,38-36.85,37.83-172.89-1-345.79-.49-518.68-.49Z"/><path class="cls-1" d="M4331.37,1597.67c0-50,1.43-96.29-.51-142.41-1.23-29.19,13.35-33.24,37.31-33.52,25-.28,37.11,6.22,36.65,34.29-1.31,79.35.21,158.75-.36,238.12-.1,14.08,8.56,34.51-12.28,40.08-22.43,6-45.31,7.19-63-15.83-37.12-48.41-75.88-95.57-114-143.22-2.95-3.68-6.11-7.19-11.7-13.74-7.75,20.4-4,38.45-4.41,55.87-.72,30-1.22,60-.27,90,.92,28.84-17.27,29.86-38.36,29.55-20.5-.3-38.76.19-38.42-29.36.92-81.31-.22-162.63.39-243.94.11-14-8.25-34.84,13.45-39.2,21-4.23,44-8.51,61.14,13.75,34.89,45.25,70.93,89.62,106.63,134.23C4310.21,1580.54,4315.36,1590.23,4331.37,1597.67Z"/><path class="cls-1" d="M5423.72,1580.79c.17,89.48-75.28,162.27-167.88,162-94.7-.33-170.3-73.35-169.48-163.71.8-89.46,76.86-162.66,168.42-162.09C5350.3,1417.54,5423.55,1488.58,5423.72,1580.79Zm-77.67-2.61c-.34-55.18-39.7-95-92.93-93.9-52.48,1-91.55,42.9-90.67,97.15.88,53.81,42.08,95.09,94.14,94.31C5309.43,1675,5346.4,1634.64,5346.05,1578.18Z"/><path class="cls-1" d="M4459.58,1580.53c.23-92.12,71.64-163.07,164.61-163.57,94.05-.51,169.38,71.57,169.85,162.53.47,92-74.32,164.5-168.36,163.29C4531.37,1741.57,4459.34,1671.21,4459.58,1580.53Zm76.89-.06c.32,56.58,35.46,94.93,87.52,95.52,54.54.62,93.06-39.81,92.69-97.3-.35-55.43-39-95.6-91.84-95.46C4571.1,1483.37,4536.14,1521.84,4536.47,1580.47Z"/><path class="cls-1" d="M3767.62,1580.37c0-42.63.68-85.26-.22-127.87-.71-33.5,22.21-29.52,43.75-30.45,22.41-1,35.13,5.63,33.68,31-1.33,23.17,0,46.48-.19,69.73-.12,14.46,6.55,21.43,21.07,21.37,29.11-.13,58.23-.32,87.34,0,16.17.19,22.61-7.47,22.37-23.11-.36-24.21.77-48.46-.08-72.65-.93-26.66,17-26.5,35.13-26,18.6.54,42.1-5.3,42.1,25.34q0,130.73-1,261.46c-.32,36.14-28.41,26-49,27.55-22.15,1.67-28.41-10.24-27.52-30.44,1-23.2-.1-46.48.12-69.73.16-18.06-7.91-26.61-26.43-26.29-27.17.45-54.36.26-81.53-.23-16.11-.3-22.8,7-22.5,22.82.47,25.17-.85,50.42.49,75.54,1.47,27.56-15.73,28.91-35.79,28.68-20.63-.23-42.41,3.09-41.79-28.87.83-42.61.21-85.24.21-127.86Z"/><path class="cls-1" d="M3150,1579.92c0-42.6.35-85.2-.15-127.8-.24-20.45,8-30.18,29.24-30,61.11.48,122.23.67,183.33-.21,24.73-.36,28.15,13.08,28.43,33.22.29,21-4.92,33.21-29,32.46-34.89-1.09-69.85.16-104.75-.61-19.48-.43-31,3.82-30.87,27,.12,21.71,6.21,32.56,29.75,31.49,27.11-1.23,54.35.48,81.46-.64,24.64-1,34.74,8.53,34.9,33.83.16,25.12-11.08,31.89-33.74,31-27.12-1.09-54.44,1.44-81.44-.62-32.24-2.46-29.42,17.72-30.61,39-1.33,23.83,10.08,26.67,30,25.82,35.83-1.52,71.78.07,107.65-.77,23.88-.56,32.12,10,32.24,33.32.12,22.73-8.56,31-30.85,30.77-62.07-.68-124.16-.47-186.24.15-21.12.2-29.72-8.83-29.43-29.62.6-42.59.18-85.19.18-127.79Z"/><path class="cls-1" d="M5969.39,1578.61c0-41.66.75-83.33-.3-125-.56-22,7.14-31.87,30.08-31.59q90.27,1.13,180.56,0c23.69-.32,29.91,11.65,30,32.47,0,20.51-5.2,33.58-29.29,33-34.92-.85-69.93,1-104.82-.48-26.62-1.11-29.32,13.26-29.89,34.53-.62,22.84,11,24.77,29.08,24,28.1-1.2,56.31.17,84.43-.86,24.07-.88,28.9,11.79,29,32.66.12,21.61-6.54,32.72-29.85,32-28.12-.89-56.33.7-84.44-.31-22.79-.82-27.76,10.91-27.59,30.65s2.49,34.42,27.79,33.73c35.88-1,71.84.37,107.74-.43,22.61-.51,34.19,7,34,31.61-.15,23.16-8.3,33.35-32.49,33-61.15-1-122.32-.94-183.47-.24-22.29.25-31.39-8-30.78-30.76,1.16-42.59.33-85.25.33-127.88Z"/><path class="cls-1" d="M5750.74,1641.18c.51,72.4-3.78,77.88-74.65,95.71-126.87,31.91-238.94-67-214.16-189,24.3-119.64,180.91-173.89,274.56-94.81,8.56,7.22,26.2,17.08,9.84,29.08-14.95,11-22.19,46.27-52.35,23.33-20.54-15.62-43.75-19.44-68.59-19-39,.64-67.5,18.53-82.05,54.16-15.95,39.05-10.74,77.5,18.7,108.14,27.05,28.16,62.39,32.71,99.85,22.73,12.57-3.35,17.11-11.57,17.28-23.4.2-13.56.11-27.12.29-40.67.45-33.33,27.43-49.63,59.11-36.43,10.09,4.2,12,11.76,12.12,20.81C5750.88,1608.26,5750.74,1624.72,5750.74,1641.18Z"/><path class="cls-1" d="M6375.48,1743.25c-36.23-1.76-70.71-10.12-104.19-24.47-32.11-13.77-15.28-33.18-8.29-52.25,8.26-22.55,21.61-12.65,34.53-5.84,30.27,15.94,62.66,19.75,96.16,16.52,15.25-1.47,29.93-6.35,32.91-23.4,3.27-18.76-12.22-25.14-26-29.63-24-7.79-48.78-13-72.75-20.8-50.92-16.57-78-48.41-75.81-87.23,2.66-46.27,32.35-79.11,83.18-92.38,46.1-12,90.29-4.52,133.94,11.83,29.76,11.14,14.13,30.38,9.49,47.81-5,18.86-16,20.93-32.95,13.62-26.09-11.24-53.6-18.18-82.22-13-15.27,2.78-32,7.48-33.93,26.61-2,20,14.58,26.09,29.28,30.75,24,7.63,48.92,12.51,72.94,20.12,51,16.16,72,42.33,71.22,86.43-.77,42.27-28.22,74.21-75.76,87.69C6410.35,1740.44,6393.18,1743.63,6375.48,1743.25Z"/><path class="cls-1" d="M3432.86,1574.48c1.25-61.74,30-112.71,91.63-140.75,64.42-29.28,126.56-22.84,182.82,22,9.18,7.3,25.21,17.62,9,29.23-14.79,10.61-23.64,42.7-51,22.83-22.31-16.18-46.28-24.68-73.15-22.89-42,2.8-69.57,25.79-80.11,64.27-12.3,44.93,1.2,85.39,36.9,110.56,27.09,19.1,77.93,18,107.58-1.68,8.36-5.55,14.85-19.46,26.58-13.61,15.51,7.73,29.73,19.38,38.5,34.47,7,12.13-5.42,19.37-13.35,25.57-56.58,44.26-118.6,50.66-183,20.91C3464.12,1697.1,3433.51,1647.47,3432.86,1574.48Z"/><path class="cls-1" d="M2979.78,1422.41c34.89,0,69.79.69,104.65-.29,25-.7,31.19,12,31.28,34.17.09,21.48-6.35,31.3-29.82,31.77-69.07,1.36-69,2.18-69.09,71.76,0,49.33-1.08,98.68.26,148,.73,27-14.49,29.81-35.13,29.16-20.22-.64-42.39,3.88-42-28.42.65-61.89-.9-123.82.34-185.69.51-25.71-6.86-38.72-34.47-35.35-9.55,1.17-19.36.29-29.05.14-31.92-.5-36.73-6.32-35.76-37.55.6-19.41,8.8-28,28.36-27.78C2906.13,1422.81,2943,1422.45,2979.78,1422.41Z"/><path class="cls-1" d="M4845.59,1580.67c0-40.62-.36-81.24.06-121.85.34-33.71,3.94-35.37,39.86-37,27-1.21,38.34,7.35,37.57,36-1.65,60.88.44,121.85-.77,182.75-.47,24,7.75,33,31.85,31.88,32.88-1.45,65.89.37,98.81-.48,25.75-.67,26.65,15.39,27.15,34.38.53,19.77-4.87,31.11-27.4,30.86q-88.65-1-177.31.13c-23.2.31-30.4-10.54-30-32C4846.17,1663.84,4845.63,1622.25,4845.59,1580.67Z"/><path class="cls-1" d="M5818.66,1579.87c0-42.66.9-85.34-.33-128-.76-26.22,13.33-30.59,34.83-29.87,20.84.7,42.15-2.27,42,29.23-.39,85.31-.49,170.62.51,255.92.34,29-17.3,29.93-38.31,29.75-20.47-.18-39.55.46-38.81-29.12,1.07-42.63.27-85.3.27-128Z"/><path class="cls-1" d="M440.87,27.71C631.12,30.59,813,20,993.87,46.14c179.54,25.92,307.33,158.14,304.5,317.5-1.48,83.32-44.73,145.91-101.62,201.69-45.51,44.61-45.6,44.52,9.12,72.07,79,39.77,139.43,188.11,122.62,300.86-23.59,158.18-128.69,258.69-296.57,284.06-116.19,17.55-233.14,12.45-350,12.53-24.2,0-43.77-7.82-55.88-29.25-32.65-57.74-65.3-115.49-97.18-173.64-17.39-31.72-4.65-41.31,29.16-41.42,109.43-.35,218.87-2.24,328.27-5,62.88-1.6,108.51-41.86,115.34-98.1,10-82.1-24.89-125.07-112-127-148.36-3.23-296.84-4-445.21-1.63-51.75.84-82.38-14.91-102.33-63.25-18.86-45.72-46.77-87.71-69.89-131.77-28.92-55.13-24.56-63,36.63-63.24,181.81-.68,363.64-.51,545.45-1.08,66.36-.2,120.51-52.85,120.13-115.55-.29-47.82-60.2-99.39-120.19-99.88-213.35-1.76-426.73-4.36-640.06-2.2C139,282.6,85.88,264,61.4,187.14c-11-34.59-32.31-66-49.3-98.67-18-34.55-22-54.23,31.35-56.71C178.89,25.46,314.24,31.09,440.87,27.71Z"/><line class="cls-2" x1="2639.17" y1="1578.06" x2="621.15" y2="1578.06"/><path class="cls-1" d="M4526,1235.53q-206.88,0-413.74,0c-39.6,0-40.56-.94-40.61-40.41-.34-268.83-.24-537.67-1.37-806.5-.11-28,7.85-38.72,37.68-37.88,63.83,1.79,127.76.44,191.65.5,40.95.05,41.54.5,41.59,42.51q.36,267.84.44,535.68c0,41.63,0,41.79,41.26,41.77q269.23-.1,538.47-.37c4.06,0,8.11,0,12.17-.08,100-1.77,151.12-87.82,103.94-175.21-20.88-38.69-58-47.81-97.85-48-144-.7-288-.31-432-.27-65.16,0-59.05,3.6-59.26-57.81q-.29-83.34,0-166.66c.12-38.25,1.29-39.44,41.73-39.51q196.22-.31,392.44-.3c26.73,0,52.8-2.59,75.55-18,35-23.71,49.23-77.34,35-130.45-10.52-39.27-41.25-64.5-85.59-68.9-16.09-1.59-32.41-1.17-48.63-1.17q-369.63-.06-739.26,0c-48.44,0-47.27-.09-50.49-47.25-4.12-60.49-.73-121-2.77-181.44-.87-25.84,9.8-34.73,35.82-34.68,264.67.52,529.41-3.41,794,1.15,349.79,6,444.12,351.83,322,553.33-9.74,16.05-7.52,25,4.82,38.19,111,118.45,125.67,256.74,75.33,402.34-48.41,140-159.51,209.77-304.18,233-71.46,11.47-143.73,4.61-215.62,5.55-84.15,1.1-168.34.26-252.5.26Z"/></svg>