<svg id="Layer_1" data-name="Layer 1" xmlns="http://www.w3.org/2000/svg" viewBox="0 0 6489.84 1865.26"><defs><style>.cls-1,.cls-2{fill:#fff;}.cls-2{stroke:#fff;stroke-miterlimit:10;stroke-width:25.88px;}</style></defs><path class="cls-1" d="M3660.31,409.13c0-116.11.81-232.23-.53-348.32-.37-31.43,9.45-41.72,38.63-40.82,61,1.87,122.08.26,183.13.34,35.74.05,36.94,1.47,37,40.86.16,121.3.5,242.59.22,363.88-.26,111.87,4.1,223.6.68,335.63-8.58,280.85-208.12,520-469.09,550.45-118.43,13.81-237.88,15.52-356.25-5.5-228.21-40.53-415.49-259.81-428.43-505.84-13.12-249.55-3.44-499.51-6.57-749.26-.27-21.55,8.22-29.62,27.68-29.53,67.83.3,135.67.42,203.48-.58,23.49-.35,27,13.59,26.92,33.66-.18,67.39.18,134.77.27,202.16.23,159.65-.42,319.31.92,479,.84,100.32,31.24,187.27,110.11,248.5,40,31.08,85.44,51.48,134.27,54.91,89.81,6.29,180.38,12.09,269.63-3.79,136.51-24.31,223.73-135.33,227.91-283.59.12-4.14.22-8.29.22-12.44q0-164.84,0-329.67Z"/><path class="cls-1" d="M2223,21.5c86.42,0,179.47.83,272.49-.5,27.7-.4,38,9.71,37.46,39.5q-1.85,99.5.42,199.05c.7,29.15-10,37.36-35.88,37.29-188-.49-376-.71-564,.85-102.09.84-190.08,37.15-252,129-25.85,38.3-42.78,81.44-51.69,127.55-14.69,76-15.82,152.79-.39,228.51,33.29,163.4,144.13,257.45,305.18,257.65,187,.24,374-2.43,561-3.7,49.9-.33,49.86-.1,50.18,53,.38,63.25.25,126.5,1.57,189.72.49,23.79-7.32,32.83-30.13,33.48q-296.43,8.46-592.87,2.36c-302.25-6-523.58-225.77-556.72-547.42C1351,607.72,1364.4,452,1445.91,311.69,1548.07,135.85,1696.91,40,1890.83,26.4,1999.26,18.79,2107.84,24.13,2223,21.5Z"/><path class="cls-1" d="M5935.38,1321.67q-253,0-506,0c-42.22,0-42.37-.2-42.42-45.61q-.34-352.12-.69-704.25c-.11-52-1.37-104-3.42-156-1.11-28.13,7.65-40.4,34.86-39.75q95.93,2.28,191.92.19c26.89-.58,36.75,11.12,35.38,39.48-1.13,23.29,1.34,46.84-.31,70.06-2,28.18,8.11,36.53,33.42,36.31,135.7-1.17,271.42-.17,407.13-.85,121.13-.59,242.25-2.55,363.38-3.56,36.95-.31,39.4,2.69,39.57,43.48.27,66.92-.43,133.85.67,200.75.43,25.68-5.44,37.88-31.8,39.89-34.14,2.6-67.76-1.77-101.62-1.73-172.54.18-345.09-.13-517.64.29-56.1.14-112.21,2.92-168.31,2.46-19.9-.17-24.9,7.88-24.57,27.87.92,56.29,1.9,112.65.06,168.87-1,30.77,8.45,40,36.35,39.89,251.07-1,502.13-.67,753.2-.76,54.49,0,54.45-.12,54.5,58.08.05,61.6-.91,123.25.76,184.81.83,30.45-8.91,40.63-36.77,40.46-172.54-1-345.09-.52-517.64-.52Z"/><path class="cls-1" d="M5935.19,285.85q-257.25,0-514.51,0c-36.38,0-38-1.59-38.21-39.86q-.44-94.84-.24-189.7c.11-40.49,1.29-41.67,39.49-41.71q441.84-.49,883.67-1c50.35-.1,100.7-1.81,151-3.52,23.21-.78,33.13,9,32.78,34.74-.91,67.37-1.24,134.79.42,202.12.74,30.1-9.43,39.22-37,39.05-172.47-1-344.94-.51-517.42-.51Z"/><path class="cls-1" d="M4322.61,1709.15c0-53.53,1.42-103-.52-152.35-1.23-31.23,13.33-35.57,37.24-35.85,24.93-.31,37,6.65,36.57,36.67-1.3,84.89.21,169.83-.35,254.74-.1,15.06,8.54,36.92-12.26,42.87-22.38,6.41-45.22,7.7-62.84-16.93-37-51.79-75.73-102.24-113.77-153.21-2.94-3.94-6.1-7.69-11.68-14.7-7.73,21.82-4,41.13-4.4,59.76-.72,32.09-1.21,64.23-.26,96.3.91,30.85-17.24,31.94-38.29,31.61-20.45-.32-38.68.2-38.34-31.41.92-87-.22-174,.39-261,.1-15-8.24-37.28,13.42-41.94,21-4.52,43.89-9.1,61,14.71,34.82,48.41,70.78,95.87,106.41,143.6C4301.49,1690.82,4306.63,1701.18,4322.61,1709.15Z"/><path class="cls-1" d="M5412.75,1691.09c.17,95.72-75.14,173.59-167.55,173.24-94.5-.34-169.95-78.46-169.14-175.13.8-95.7,76.71-174,168.08-173.39C5339.48,1516.45,5412.57,1592.44,5412.75,1691.09Zm-77.52-2.79c-.34-59-39.62-101.58-92.74-100.45-52.38,1.11-91.37,45.89-90.48,103.92.87,57.57,42,101.72,93.94,100.9C5298.69,1791.82,5335.58,1748.7,5335.23,1688.3Z"/><path class="cls-1" d="M4450.55,1690.81c.23-98.54,71.49-174.45,164.28-175,93.86-.54,169,76.57,169.51,173.88.47,98.37-74.18,176-168,174.68C4522.2,1863.08,4450.32,1787.82,4450.55,1690.81Zm76.74-.07c.32,60.53,35.38,101.56,87.34,102.19,54.43.66,92.88-42.59,92.51-104.09-.36-59.29-38.93-102.27-91.66-102.12C4561.85,1586.87,4527,1628,4527.29,1690.74Z"/><path class="cls-1" d="M3760,1690.63c0-45.59.68-91.2-.22-136.78-.7-35.84,22.17-31.59,43.67-32.57,22.36-1,35.06,6,33.61,33.11-1.33,24.78,0,49.72-.19,74.59-.12,15.47,6.53,22.92,21,22.86,29.06-.14,58.12-.34,87.17,0,16.14.21,22.56-8,22.33-24.73-.36-25.9.76-51.84-.09-77.71-.93-28.52,16.93-28.35,35.07-27.78,18.56.58,42-5.66,42,27.12q0,139.85-.94,279.69c-.31,38.67-28.35,27.82-48.92,29.48-22.1,1.78-28.36-11-27.47-32.56,1-24.82-.1-49.73.12-74.6.17-19.31-7.89-28.46-26.37-28.13-27.12.49-54.25.29-81.36-.24-16.08-.32-22.76,7.49-22.46,24.41.46,26.93-.85,53.94.49,80.81,1.47,29.49-15.7,30.93-35.72,30.69-20.59-.25-42.33,3.3-41.71-30.89.83-45.58.21-91.19.21-136.79Z"/><path class="cls-1" d="M3143.59,1690.15c0-45.57.35-91.14-.15-136.71-.24-21.88,7.93-32.28,29.18-32.1,61,.51,122,.71,183-.23,24.67-.38,28.09,14,28.36,35.54.29,22.44-4.9,35.53-29,34.72-34.82-1.16-69.71.18-104.54-.65-19.44-.46-30.95,4.09-30.81,28.92.12,23.23,6.19,34.84,29.69,33.7,27.05-1.32,54.24.51,81.3-.69,24.58-1.08,34.66,9.13,34.83,36.19.16,26.88-11.06,34.11-33.68,33.13-27.06-1.17-54.33,1.55-81.27-.66-32.17-2.63-29.36,19-30.55,41.73-1.33,25.48,10.06,28.52,30,27.61,35.75-1.63,71.63.07,107.43-.82,23.84-.6,32.05,10.73,32.18,35.64.11,24.32-8.55,33.18-30.79,32.92-62-.72-123.91-.5-185.87.16-21.07.22-29.66-9.45-29.36-31.69.59-45.56.17-91.14.17-136.71Z"/><path class="cls-1" d="M5957.31,1688.76c0-44.57.75-89.15-.3-133.69-.56-23.58,7.12-34.1,30-33.79q90.09,1.2,180.19-.06c23.65-.34,29.85,12.46,29.89,34.74,0,21.94-5.19,35.91-29.23,35.29-34.85-.92-69.79,1-104.6-.52-26.57-1.18-29.26,14.18-29.84,36.94-.61,24.44,11,26.5,29,25.68,28.05-1.28,56.2.17,84.27-.93,24-.94,28.83,12.62,29,34.95.12,23.11-6.54,35-29.8,34.21-28.06-1-56.21.74-84.26-.33-22.75-.88-27.71,11.67-27.53,32.78s2.48,36.82,27.72,36.08c35.82-1,71.7.4,107.52-.46,22.57-.54,34.13,7.45,34,33.82-.15,24.78-8.28,35.68-32.43,35.25-61-1.07-122.07-1-183.09-.26-22.24.28-31.33-8.53-30.72-32.9,1.15-45.57.33-91.19.33-136.8Z"/><path class="cls-1" d="M5739.1,1755.7c.51,77.44-3.77,83.31-74.5,102.38-126.61,34.14-238.46-71.68-213.72-202.2,24.25-128,180.54-186,274-101.43,8.54,7.74,26.14,18.28,9.82,31.12-14.92,11.73-22.14,49.49-52.24,25-20.5-16.71-43.67-20.79-68.46-20.35-38.95.7-67.36,19.83-81.88,57.95-15.91,41.77-10.71,82.9,18.66,115.68,27,30.12,62.27,35,99.65,24.32,12.55-3.59,17.08-12.38,17.25-25,.19-14.5.1-29,.29-43.5.45-35.66,27.37-53.1,59-39,10.07,4.49,12,12.57,12.09,22.26C5739.24,1720.48,5739.1,1738.09,5739.1,1755.7Z"/><path class="cls-1" d="M6362.57,1864.88c-36.15-1.88-70.56-10.83-104-26.17-32.05-14.73-15.25-35.5-8.28-55.9,8.24-24.13,21.57-13.53,34.47-6.25,30.2,17,62.53,21.13,96,17.68,15.22-1.58,29.87-6.8,32.84-25,3.27-20.07-12.19-26.89-26-31.69-23.92-8.34-48.69-13.91-72.61-22.25-50.81-17.73-77.88-51.8-75.65-93.33,2.65-49.49,32.28-84.62,83-98.82,46-12.88,90.11-4.83,133.67,12.65,29.69,11.92,14.1,32.51,9.47,51.16-5,20.17-16,22.38-32.89,14.57-26-12-53.48-19.46-82.05-13.88-15.24,3-31.94,8-33.86,28.47-2,21.37,14.55,27.91,29.22,32.9,24,8.15,48.82,13.38,72.8,21.52,50.88,17.28,71.87,45.28,71.07,92.46-.77,45.21-28.17,79.38-75.61,93.8C6397.38,1861.88,6380.24,1865.29,6362.57,1864.88Z"/><path class="cls-1" d="M3425.92,1684.34c1.24-66,29.9-120.57,91.44-150.57,64.29-31.33,126.3-24.44,182.45,23.5,9.16,7.81,25.16,18.85,9,31.27-14.76,11.35-23.6,45.68-50.93,24.43-22.26-17.31-46.18-26.41-73-24.49-41.92,3-69.43,27.58-79.95,68.75-12.27,48.07,1.2,91.35,36.82,118.27,27,20.44,77.78,19.22,107.37-1.79,8.35-5.94,14.82-20.82,26.53-14.57,15.48,8.27,29.66,20.74,38.42,36.89,7,13-5.41,20.71-13.32,27.35-56.47,47.34-118.36,54.19-182.62,22.37C3457.11,1815.51,3426.57,1762.42,3425.92,1684.34Z"/><path class="cls-1" d="M2973.75,1521.66c34.82-.05,69.65.74,104.44-.31,24.93-.76,31.12,12.79,31.22,36.55.09,23-6.35,33.49-29.77,34-68.93,1.46-68.9,2.34-68.95,76.78,0,52.77-1.08,105.56.26,158.29.74,28.92-14.46,31.89-35.06,31.19-20.18-.68-42.29,4.15-41.95-30.4.65-66.21-.9-132.45.34-198.64.51-27.51-6.85-41.43-34.4-37.82-9.53,1.25-19.32.31-29,.15-31.86-.53-36.65-6.76-35.69-40.17.6-20.77,8.78-30,28.3-29.72C2900.24,1522.09,2937,1521.7,2973.75,1521.66Z"/><path class="cls-1" d="M4835.78,1691c0-43.45-.35-86.91.06-130.35.35-36.07,3.94-37.84,39.79-39.57,27-1.3,38.26,7.86,37.49,38.54-1.65,65.12.43,130.35-.77,195.5-.47,25.64,7.73,35.25,31.79,34.11,32.81-1.55,65.75.39,98.61-.52,25.69-.71,26.59,16.47,27.09,36.78.52,21.15-4.86,33.28-27.35,33q-88.45-1-176.95.13c-23.15.33-30.33-11.27-29.94-34.19C4836.36,1779.94,4835.82,1735.44,4835.78,1691Z"/><path class="cls-1" d="M5806.89,1690.1c0-45.63.9-91.29-.33-136.88-.76-28,13.3-32.73,34.76-32,20.79.75,42.06-2.43,41.91,31.27-.39,91.26-.49,182.53.51,273.78.34,31.06-17.26,32-38.23,31.82-20.44-.18-39.48.5-38.74-31.15,1.07-45.6.28-91.25.28-136.88Z"/><path class="cls-1" d="M440,29.64c189.87,3.09,371.39-8.22,551.89,19.72C1171,77.09,1298.56,218.53,1295.74,389c-1.48,89.13-44.64,156.09-101.42,215.76-45.41,47.73-45.5,47.64,9.1,77.11,78.82,42.54,139.16,201.23,122.38,321.85-23.54,169.21-128.42,276.74-296,303.87-115.95,18.78-232.67,13.32-349.24,13.41-24.15,0-43.68-8.37-55.77-31.29-32.58-61.77-65.16-123.54-97-185.75-17.36-33.94-4.64-44.2,29.1-44.32,109.21-.37,218.43-2.39,327.6-5.38,62.76-1.72,108.3-44.79,115.12-104.95,10-87.83-24.84-133.8-111.82-135.82-148.06-3.46-296.24-4.31-444.31-1.74-51.65.89-82.22-16-102.12-67.66-18.83-48.91-46.68-93.84-69.75-141-28.87-59-24.51-67.41,36.55-67.65,181.45-.74,362.9-.55,544.35-1.16,66.23-.22,120.27-56.54,119.89-123.61-.29-51.16-60.08-106.33-120-106.85C639.58,302,426.63,299.2,213.74,301.5c-75,.81-128-19.12-152.47-101.3-11-37-32.24-70.61-49.19-105.55-17.94-37-22-58,31.29-60.68C178.53,27.24,313.6,33.26,440,29.64Z"/><line class="cls-2" x1="2633.83" y1="1688.17" x2="619.89" y2="1688.17"/><path class="cls-1" d="M4516.85,1321.74q-206.46,0-412.91,0c-39.51,0-40.47-1-40.52-43.23-.34-287.59-.24-575.18-1.36-862.76-.12-29.94,7.83-41.43,37.6-40.53,63.7,1.91,127.5.47,191.25.54,40.87,0,41.46.53,41.52,45.47q.34,286.53.43,573.06c0,44.54,0,44.7,41.18,44.68q268.68-.11,537.38-.39c4.05,0,8.1,0,12.14-.09,99.83-1.89,150.81-94,103.74-187.44-20.85-41.38-57.85-51.14-97.66-51.35-143.7-.74-287.41-.33-431.12-.28-65,0-58.93,3.85-59.14-61.85q-.29-89.14,0-178.29c.11-40.92,1.29-42.18,41.64-42.26q195.82-.35,391.65-.33c26.67,0,52.69-2.77,75.4-19.27C4983,472,4997.2,414.65,4983,357.83c-10.49-42-41.16-69-85.41-73.7-16.05-1.71-32.35-1.26-48.53-1.27q-368.88,0-737.76.05c-48.35,0-47.18-.1-50.39-50.56-4.12-64.71-.73-129.43-2.76-194.09-.88-27.65,9.77-37.16,35.74-37.11,264.13.57,528.34-3.65,792.39,1.24,349.08,6.46,443.22,376.37,321.32,591.93-9.72,17.18-7.51,26.76,4.81,40.85,110.76,126.72,125.42,274.67,75.18,430.42C5239.27,1215.38,5128.4,1290,4984,1314.83c-71.31,12.26-143.44,4.93-215.18,5.94-84,1.18-168,.27-252,.27Z"/></svg>