<svg xmlns="http://www.w3.org/2000/svg" viewBox="0 0 2854.71 3290"><defs><style>.cls-1{isolation:isolate;}.cls-2{mix-blend-mode:hard-light;}.cls-3{fill:navy;}.cls-4{fill:#87ceeb;}</style></defs><g class="cls-1"><g id="Layer_1" data-name="Layer 1"><g class="cls-2"><path class="cls-3" d="M2301,1022q-3.87,2.55-7.65,5.2c-11.11,7.81-39.35,25.7-40.82,41.06-1,10.1,15,27.44,22.59,31.94,20.15,11.93,39.58,22.72,61.34,31.31C2446.67,1175,2541.36,1205,2655.6,1270.8c84.5,48.7,162.57,127,188.77,225.35q2.91,10.88,4.79,22c8,46.86,1.48,96,1.75,143.24.34,60.49-.36,121-1.74,181.46-2.38,104.52-44,184.08-141.15,237.25C2294.32,2306.4,1882.4,2536,1470.46,2765.51c-29.07,16.2-51.49,17.09-80.19.54-99.22-57.21-199.88-111.91-299.7-168.08-41-23.06-41-27.43-.22-49.94q392.1-216.29,784.43-432.16c106.68-58.89,212.7-118.94,319.22-178.12,19.89-11.06,35.27-23.65,40.24-48.17,15-74.17,28.6-148.22,24.94-224.54-1.59-33-11.52-55.93-43.7-72.6-98.44-51-195.51-104.69-292-159.33-24.38-13.81-43.23-13.74-67.36-.4Q1419.45,1674.15,982,1914.16c-54.37,29.94-54.17,30.33-54.18-31.45,0-119.44,1.48-238.9-.87-358.3-.74-37.9,11.67-59.85,44.81-77.87,204.46-111.16,408-224,611.85-336.28q131.28-72.29,262.69-144.37c16.37-9,29.88-19.2,34.79-39.48,16.11-66.47,30.16-132.91,27.2-202.06-1.38-32.26-13-53.78-42.77-69.75q-201.39-107.9-400.76-219.51c-24.44-13.65-43-12.38-67.17,1.11-311.77,174-624.3,346.57-936.08,520.52-24.68,13.78-44.29,12.75-67.59-.45-99.67-56.45-200-111.68-299.68-168.16-14-7.94-37.2-12.11-36.48-31,.61-16,22.45-20.06,35.83-27.51Q432.15,541.16,771.11,353.43c205.74-113.92,411.94-227,617.29-341.63,28.66-16,50.88-15.65,80.08.59C1888.79,246.17,2306.41,488,2730.88,713.6c6.87,3.65,14.17,5.36,20.9,9.33,21,12.36,39.31,24.94,39.31,39.86,0,13.74-35.73,24.76-84.66,50.83-51.71,27.55-101.76,54-154,80.48-57.7,29.19-115.4,56.09-173.09,85.28L2362,988.14C2341.27,998.64,2320.43,1009.2,2301,1022Z"/><path class="cls-3" d="M463.69,1982c0-71.86,1.13-143.74-.54-215.57-.7-30.35,8.84-49.56,36.41-64.15,105.46-55.83,209.8-113.77,314.89-170.32,35.6-19.16,40-16.26,40.11,26.12.43,141.28.28,282.57.36,423.85,0,11-.42,21.95.13,32.88,1.94,38.45,10.45,44.21,44.16,26,120-64.7,239.67-130.22,359.37-195.57q298.2-162.8,596-326.25c25.25-13.94,45.23-14.35,70.54,0,76.22,43.3,153.63,84.52,231.14,125.48,20.77,11,32,24.91,29.05,48.91-.74,6,0,12.17,0,18.26.07,148.75-3.73,153.24-131.84,223.64q-520.26,285.89-1039.36,573.85c-28.66,15.91-51.44,18.39-80.68,1.92Q721.77,2391.83,508.1,2276.18c-32-17.26-45.75-38.58-44.74-75,2-73,.61-146.14.61-219.22Z"/><path class="cls-3" d="M464.49,1331.76c0-84,.58-168.09-.31-252.13-.31-28.57,9.57-46.48,35.77-60.92q454.29-250.47,907.26-503.33c19.41-10.82,34.47-10.81,53.85,0q172.28,96.12,345.88,189.81c20.91,11.27,32.09,24.28,28.24,48.61-1.51,9.52-.39,19.45-.56,29.2-1.24,72-22.45,123.87-95.17,162.6C1325.67,1166,915.22,1392.68,503.57,1617.09c-34.56,18.85-39.11,16.67-39.44-22.23-.74-87.7-.23-175.4-.23-263.1Z"/><path class="cls-3" d="M1,2303.21c0-63.33.49-126.67-.22-190-.33-29.3,8.64-33.45,34.13-19.2q535.62,299.55,1071.85,598c84,46.84,167.78,94.14,252.25,140.15,24,13.07,35.29,29.72,35,57.86-1.19,120.57-.43,241.15-1.16,361.72-.23,38.69-6.11,41.69-39.55,23.18Q698.16,2912.24,42.75,2550C12.34,2533.18-1.53,2514.1.13,2478.56c2.72-58.33.74-116.89.74-175.35Z"/><path class="cls-3" d="M2850.72,2303.22c0,62.11-1.16,124.25.5,186.32.74,27.69-8.18,44.49-33,58.23q-423.58,234.12-846.23,470-233,129.61-465.9,259.49c-36.66,20.47-41.52,18.51-41.65-22.14-.38-121.79.39-243.58-.89-365.35-.29-28.23,10.48-44.14,34.7-57.5q516.52-285,1032.32-571.23c82-45.41,164.35-90.26,246.19-136,13.78-7.66,26.19-17.73,39.74-25.85,9.72-5.82,15-24.78,28.54-16.67,17.42,10.44,6.15,59.83,5.72,76.65C2849.5,2207.11,2850.73,2255.26,2850.72,2303.22Z"/><path class="cls-3" d="M393,1618q0,270.38-.06,540.75c-.05,46.89-3.61,49.22-43.52,27.12-86.28-47.77-170.39-99.93-258.95-143C23.59,2010.34.29,1960.52.45,1891.2,1,1628.14.6,1365.07.61,1102c0-81.6.71-163.21.08-244.8C.46,828,9.86,822.86,35.07,837.08q162.24,91.56,325.41,181.49c24.42,13.42,33.4,31,33.25,58.66-.93,180.24-.48,360.5-.48,540.74Z"/><path class="cls-3" d="M2808.78,1254.22c1,5.06,2,10.41-.24,15.2-4.8,10.46-14,6.25-22,2.21-12.07-6.07-24.65-11.57-37.08-17.13q-36.69-16.39-74.27-31.37c-50.62-20.3-102.1-39.06-153.69-57.57-40.77-14.62-81.76-28.82-122.69-43.14-37.69-13.19-43.61-14-118.09-43.55-4.53-1.79-7.6-5.69-7.09-9.83.68-5.54,7.29-8.86,13.19-11.39,99.16-42.46,197.25-91,300-136.4,103.94-46,140.12-66.82,208.16-94.72,22.42-9.19,12.51,52.77,12.36,73.41-.43,58.53,0,175.58.14,175.58"/></g><path class="cls-4" d="M2301,1022q-3.87,2.55-7.65,5.2c-11.11,7.81-39.35,25.7-40.82,41.06-1,10.1,15,27.44,22.59,31.94,20.15,11.93,39.58,22.72,61.34,31.31C2446.67,1175,2541.36,1205,2655.6,1270.8c84.5,48.7,162.57,127,188.77,225.35q2.91,10.88,4.79,22c8,46.86,1.48,96,1.75,143.24.34,60.49-.36,121-1.74,181.46-2.38,104.52-44,184.08-141.15,237.25C2294.32,2306.4,1882.4,2536,1470.46,2765.51c-29.07,16.2-51.49,17.09-80.19.54-99.22-57.21-199.88-111.91-299.7-168.08-41-23.06-41-27.43-.22-49.94q392.1-216.29,784.43-432.16c106.68-58.89,212.7-118.94,319.22-178.12,19.89-11.06,35.27-23.65,40.24-48.17,15-74.17,28.6-148.22,24.94-224.54-1.59-33-11.52-55.93-43.7-72.6-98.44-51-195.51-104.69-292-159.33-24.38-13.81-43.23-13.74-67.36-.4Q1419.45,1674.15,982,1914.16c-54.37,29.94-54.17,30.33-54.18-31.45,0-119.44,1.48-238.9-.87-358.3-.74-37.9,11.67-59.85,44.81-77.87,204.46-111.16,408-224,611.85-336.28q131.28-72.29,262.69-144.37c16.37-9,29.88-19.2,34.79-39.48,16.11-66.47,30.16-132.91,27.2-202.06-1.38-32.26-13-53.78-42.77-69.75q-201.39-107.9-400.76-219.51c-24.44-13.65-43-12.38-67.17,1.11-311.77,174-624.3,346.57-936.08,520.52-24.68,13.78-44.29,12.75-67.59-.45-99.67-56.45-200-111.68-299.68-168.16-14-7.94-37.2-12.11-36.48-31,.61-16,22.45-20.06,35.83-27.51Q432.15,541.16,771.11,353.43c205.74-113.92,411.94-227,617.29-341.63,28.66-16,50.88-15.65,80.08.59C1888.79,246.17,2306.41,488,2730.88,713.6c6.87,3.65,14.17,5.36,20.9,9.33,21,12.36,39.31,24.94,39.31,39.86,0,13.74-35.73,24.76-84.66,50.83-51.71,27.55-101.76,54-154,80.48-57.7,29.19-115.4,56.09-173.09,85.28L2362,988.14C2341.27,998.64,2320.43,1009.2,2301,1022Z"/><path class="cls-3" d="M463.69,1982c0-71.86,1.13-143.74-.54-215.57-.7-30.35,8.84-49.56,36.41-64.15,105.46-55.83,209.8-113.77,314.89-170.32,35.6-19.16,40-16.26,40.11,26.12.43,141.28.28,282.57.36,423.85,0,11-.42,21.95.13,32.88,1.94,38.45,10.45,44.21,44.16,26,120-64.7,239.67-130.22,359.37-195.57q298.2-162.8,596-326.25c25.25-13.94,45.23-14.35,70.54,0,76.22,43.3,153.63,84.52,231.14,125.48,20.77,11,32,24.91,29.05,48.91-.74,6,0,12.17,0,18.26.07,148.75-3.73,153.24-131.84,223.64q-520.26,285.89-1039.36,573.85c-28.66,15.91-51.44,18.39-80.68,1.92Q721.77,2391.83,508.1,2276.18c-32-17.26-45.75-38.58-44.74-75,2-73,.61-146.14.61-219.22Z"/><path class="cls-3" d="M464.49,1331.76c0-84,.58-168.09-.31-252.13-.31-28.57,9.57-46.48,35.77-60.92q454.29-250.47,907.26-503.33c19.41-10.82,34.47-10.81,53.85,0q172.28,96.12,345.88,189.81c20.91,11.27,32.09,24.28,28.24,48.61-1.51,9.52-.39,19.45-.56,29.2-1.24,72-22.45,123.87-95.17,162.6C1325.67,1166,915.22,1392.68,503.57,1617.09c-34.56,18.85-39.11,16.67-39.44-22.23-.74-87.7-.23-175.4-.23-263.1Z"/><path class="cls-3" d="M1,2303.21c0-63.33.49-126.67-.22-190-.33-29.3,8.64-33.45,34.13-19.2q535.62,299.55,1071.85,598c84,46.84,167.78,94.14,252.25,140.15,24,13.07,35.29,29.72,35,57.86-1.19,120.57-.43,241.15-1.16,361.72-.23,38.69-6.11,41.69-39.55,23.18Q698.16,2912.24,42.75,2550C12.34,2533.18-1.53,2514.1.13,2478.56c2.72-58.33.74-116.89.74-175.35Z"/><path class="cls-3" d="M2850.72,2303.22c0,62.11-1.16,124.25.5,186.32.74,27.69-8.18,44.49-33,58.23q-423.58,234.12-846.23,470-233,129.61-465.9,259.49c-36.66,20.47-41.52,18.51-41.65-22.14-.38-121.79.39-243.58-.89-365.35-.29-28.23,10.48-44.14,34.7-57.5q516.52-285,1032.32-571.23c82-45.41,164.35-90.26,246.19-136,13.78-7.66,26.19-17.73,39.74-25.85,9.72-5.82,15-24.78,28.54-16.67,17.42,10.44,6.15,59.83,5.72,76.65C2849.5,2207.11,2850.73,2255.26,2850.72,2303.22Z"/><path class="cls-3" d="M393,1618q0,270.38-.06,540.75c-.05,46.89-3.61,49.22-43.52,27.12-86.28-47.77-170.39-99.93-258.95-143C23.59,2010.34.29,1960.52.45,1891.2,1,1628.14.6,1365.07.61,1102c0-81.6.71-163.21.08-244.8C.46,828,9.86,822.86,35.07,837.08q162.24,91.56,325.41,181.49c24.42,13.42,33.4,31,33.25,58.66-.93,180.24-.48,360.5-.48,540.74Z"/><path class="cls-3" d="M2808.78,1254.22c1,5.06,2,10.41-.24,15.2-4.8,10.46-14,6.25-22,2.21-12.07-6.07-24.65-11.57-37.08-17.13q-36.69-16.39-74.27-31.37c-50.62-20.3-102.1-39.06-153.69-57.57-40.77-14.62-81.76-28.82-122.69-43.14-37.69-13.19-43.61-14-118.09-43.55-4.53-1.79-7.6-5.69-7.09-9.83.68-5.54,7.29-8.86,13.19-11.39,99.16-42.46,197.25-91,300-136.4,103.94-46,140.12-66.82,208.16-94.72,22.42-9.19,12.51,52.77,12.36,73.41-.43,58.53,0,175.58.14,175.58"/></g></g></svg>